<svg xmlns="http://www.w3.org/2000/svg" xmlns:xlink="http://www.w3.org/1999/xlink" version="1.1" id="Capa_1" x="0px" y="0px" viewBox="0 0 512 512" style="enable-background:new 0 0 512 512;" xml:space="preserve" width="512px" height="512px">
<g>
	<g>
		<path d="M502,303.863c5.522,0,10-4.477,10-10V219.69c0-3.538-1.87-6.813-4.917-8.611c-3.048-1.799-6.819-1.853-9.916-0.143    l-103.178,56.964v-48.024c0-5.523-4.478-10-10-10h-18.435c16.63-14.665,27.149-36.105,27.149-59.968    c0-44.095-35.873-79.968-79.968-79.968s-79.969,35.874-79.969,79.968c0,23.863,10.52,45.304,27.15,59.968H133.351    c16.63-14.665,27.149-36.105,27.149-59.968c0-44.095-35.873-79.968-79.968-79.968S0.565,105.816,0.565,149.909    c0,23.863,10.52,45.304,27.149,59.968H10c-5.522,0-10,4.477-10,10v211.994c0,5.523,4.478,10,10,10h373.99c5.522,0,10-4.477,10-10    v-48.024l103.178,56.964c1.505,0.831,3.17,1.246,4.833,1.246c1.759,0,3.517-0.464,5.083-1.388    c3.047-1.798,4.917-5.073,4.917-8.612v-71.198c0-5.523-4.478-10-10-10s-10,4.477-10,10v54.255l-98.01-54.112v-70.258l98.01-54.112    v57.229C492.001,299.386,496.478,303.863,502,303.863z M252.768,149.91c0-33.067,26.901-59.968,59.969-59.968    c33.066,0,59.968,26.901,59.968,59.968s-26.901,59.968-59.968,59.968C279.67,209.879,252.768,182.977,252.768,149.91z     M20.566,149.91c0-33.067,26.901-59.968,59.968-59.968c33.067,0,59.968,26.901,59.968,59.968s-26.901,59.968-59.968,59.968    C47.468,209.879,20.566,182.977,20.566,149.91z M373.99,421.873H19.999V229.878h353.99V421.873z" fill="#FFFFFF"/>
	</g>
</g>
<g>
	<g>
		<path d="M502,315.876c-5.522,0-10,4.477-10,10v0.313c0,5.523,4.478,10,10,10s10-4.477,10-10v-0.313    C512,320.353,507.522,315.876,502,315.876z" fill="#FFFFFF"/>
	</g>
</g>
<g>
	<g>
		<path d="M198.142,259.877h-0.115c-5.522,0-10,4.477-10,10c0,5.523,4.478,10,10,10h0.115c5.522,0,10-4.477,10-10    C208.141,264.354,203.663,259.877,198.142,259.877z" fill="#FFFFFF"/>
	</g>
</g>
<g>
	<g>
		<path d="M326.991,259.877h-98.657c-5.523,0-10,4.477-10,10c0,5.523,4.478,10,10,10h88.658v91.997H76.998v-91.997h91.72    c5.522,0,10-4.477,10-10c0-5.523-4.478-10-10-10H66.998c-5.522,0-10,4.477-10,10v111.997c0,5.523,4.478,10,10,10h259.993    c5.522,0,10-4.477,10-10V269.877C336.991,264.354,332.513,259.877,326.991,259.877z" fill="#FFFFFF"/>
	</g>
</g>
<g>
	<g>
		<path d="M80.535,118.911c-17.094,0-30.999,13.907-30.999,30.999s13.906,30.999,30.999,30.999    c17.094,0,30.999-13.907,30.999-30.999S97.628,118.911,80.535,118.911z M80.535,160.91c-6.065,0-11-4.935-11-11s4.935-11,11-11    c6.065,0,11,4.935,11,11S86.601,160.91,80.535,160.91z" fill="#FFFFFF"/>
	</g>
</g>
<g>
	<g>
		<path d="M312.737,118.911c-17.094,0-30.999,13.907-30.999,30.999s13.906,30.999,30.999,30.999    c17.094,0,30.999-13.907,30.999-30.999S329.831,118.911,312.737,118.911z M312.737,160.91c-6.065,0-11-4.935-11-11s4.935-11,11-11    c6.065,0,11,4.935,11,11S318.803,160.91,312.737,160.91z" fill="#FFFFFF"/>
	</g>
</g>
</svg>
