<?xml version="1.0" encoding="iso-8859-1"?>
<!-- Generator: Adobe Illustrator 19.0.0, SVG Export Plug-In . SVG Version: 6.00 Build 0)  -->
<svg xmlns="http://www.w3.org/2000/svg" xmlns:xlink="http://www.w3.org/1999/xlink" version="1.1" id="Capa_1" x="0px" y="0px" viewBox="0 0 511.999 511.999" style="enable-background:new 0 0 511.999 511.999;" xml:space="preserve" width="512px" height="512px">
<g>
	<g>
		<path d="M444.158,141.889l-0.226-0.37c-2.894-4.701-9.05-6.17-13.756-3.275c-4.702,2.895-6.169,9.053-3.275,13.756l0.124,0.203    c1.877,3.118,5.183,4.843,8.576,4.843c1.756,0,3.534-0.463,5.148-1.435C445.48,152.764,447.007,146.62,444.158,141.889z" fill="#FFFFFF"/>
	</g>
</g>
<g>
	<g>
		<path d="M188.836,398.268l-0.374-0.311c-4.253-3.523-10.557-2.93-14.078,1.324c-3.523,4.254-2.93,10.557,1.324,14.078l0.374,0.312    c1.865,1.545,4.125,2.298,6.371,2.298c2.876,0,5.729-1.235,7.707-3.623C193.683,408.094,193.09,401.791,188.836,398.268z" fill="#FFFFFF"/>
	</g>
</g>
<g>
	<g>
		<path d="M511.801,388.849c-1.687-36.1-14.126-77.607-35.975-120.032c-0.033-0.063-0.072-0.12-0.106-0.182    c1.476-25.904-1.63-52.296-9.605-78.006c-2.173-7.003-4.727-13.976-7.595-20.727c-2.159-5.082-8.029-7.453-13.112-5.293    c-5.083,2.159-7.453,8.029-5.294,13.112c2.605,6.134,4.927,12.471,6.901,18.834c22.09,71.21,3.092,148.168-49.581,200.838    c-33.805,33.806-77.586,54.004-124.702,57.875c-7.645-4.084-15.329-8.491-23.028-13.21c0.397-6.313,2.929-12.973,8.961-18.684    l58.7-55.577c9.034-8.553,11.842-21.995,6.987-33.45l-15.51-36.594c-1.511-3.564-3.665-6.758-6.4-9.494l-6.304-6.305    c-2.104-2.104-3.129-4.894-2.886-7.859c0.242-2.964,1.707-5.551,4.125-7.285l28.5-20.436c3.137-2.25,7.339-2.479,10.7-0.583    l15.048,8.482c10.899,6.145,24.619,4.821,34.14-3.29c15.522-13.219,22.195-33.005,17.851-52.925    c-4.345-19.921-18.651-35.131-38.268-40.685l-11.236-3.182c-2.817-0.798-5.054-2.696-6.301-5.343    c-1.063-2.259-1.246-4.724-0.546-7.062c5.019-6.356,5.899-15.067,2.067-22.393L325.223,73.31c-0.979-1.87-1.648-3.815-2.039-5.793    c27.61,9.816,52.917,25.732,74.251,47.067c3.984,3.984,7.839,8.173,11.454,12.448c3.567,4.216,9.876,4.743,14.091,1.178    c4.217-3.566,4.744-9.875,1.179-14.091c-3.974-4.697-8.206-9.299-12.583-13.675c-41.548-41.547-96.789-64.429-155.545-64.429    c-4.183,0-8.347,0.129-12.492,0.36C201.309,14.58,159.995,2.093,123.97,0.258C84.949-1.731,52.748,8.82,30.806,30.762    c-33.087,33.087-39.775,87.865-18.834,154.24c6.082,19.28,14.313,38.91,24.442,58.551c-0.229,4.125-0.356,8.27-0.356,12.435    c0,58.757,22.881,113.998,64.429,155.545s96.789,64.429,155.545,64.429c4.165,0,8.31-0.128,12.436-0.356    c33.772,17.461,66.94,28.98,97.846,33.821c10.884,1.705,21.302,2.552,31.221,2.552c34.793,0,63.381-10.422,83.723-30.764    C503.045,459.428,513.606,427.489,511.801,388.849z M244.897,56.325L225.439,84.56c-4.752,6.897-4.814,15.852-0.157,22.813    c0.063,0.094,0.095,0.159,0.109,0.174c-0.051,0.137-0.232,0.338-0.27,0.371c-0.001,0-0.079-0.013-0.241-0.098l-58.661-30.618    C190.504,64.972,217.174,57.837,244.897,56.325z M31.043,178.986c-18.587-58.911-13.65-106.53,13.903-134.082    c17.833-17.833,44.811-26.366,78.007-24.674c25.572,1.303,54.286,8.56,84.277,21.189c-40.12,9.043-76.952,29.234-106.743,59.025    c-29.802,29.802-49.996,66.648-59.035,106.784C37.471,197.749,33.988,188.321,31.043,178.986z M102.787,127.505l-5.606,24.658    c-2.625,11.674,1.443,23.697,10.616,31.38l18.021,15.094c4.255,3.565,5.463,9.507,2.938,14.449l-16.314,31.921    c-5.082,9.945-4.637,21.568,1.192,31.095c5.829,9.526,15.977,15.212,27.145,15.212c4.128,0,7.765,1.998,9.979,5.48    c2.216,3.484,2.481,7.625,0.73,11.363l-17.721,37.829c-31.515-34.029-57.686-70.372-77.017-106.677    C60.139,197.98,76.103,159.222,102.787,127.505z M114.627,397.394c-32.013-32.014-51.83-72.971-57.129-117.237    c19.118,30.034,42.439,59.59,69.17,87.435c-0.092,4.341,0.698,8.701,2.381,12.786l13,31.572c1.459,3.543,2.379,6.947,2.765,10.303    C134.084,415.043,123.973,406.74,114.627,397.394z M231.652,430.437c-0.809-0.546-1.618-1.086-2.427-1.638    c-6.368-4.349-12.779-8.944-19.057-13.657c-4.417-3.316-10.684-2.425-13.999,1.991s-2.425,10.684,1.991,13.999    c6.515,4.893,13.172,9.664,19.788,14.181c4.221,2.883,8.446,5.669,12.67,8.378c0.046,0.232,0.091,0.465,0.141,0.697    c-23.327-2.924-45.715-9.893-66.346-20.55c1.528-9.79,0.245-19.504-3.873-29.503l-3.944-9.577    c0.648,0.129,1.304,0.199,1.961,0.199c2.684,0,5.359-1.074,7.33-3.196c3.757-4.047,3.522-10.374-0.525-14.13    c-5.3-4.92-10.607-10.035-15.773-15.201c-0.329-0.329-0.651-0.662-0.979-0.991l20.986-44.796    c4.642-9.911,3.909-21.341-1.964-30.576c-5.872-9.235-15.911-14.748-26.855-14.748c-4.212,0-7.889-2.061-10.088-5.653    c-2.199-3.594-2.36-7.805-0.443-11.557l16.314-31.922c6.797-13.3,3.548-29.289-7.903-38.879l-18.021-15.094    c-3.409-2.855-4.92-7.324-3.95-11.639l12.565-55.265c5.32-4.376,10.836-8.45,16.521-12.224l69.854,36.461    c3.051,1.593,6.298,2.367,9.501,2.367c5.576,0,11.012-2.348,15.013-6.809c6.299-7.022,7.007-17.01,1.762-24.851    c-0.069-0.104-0.068-0.244,0.003-0.347l27.198-39.463c11.463,0.735,22.737,2.434,33.732,5.058    c-0.392,7.236,1.181,14.413,4.667,21.076l24.107,46.085c0.144,0.274,0.093,0.606-0.126,0.826c-0.876,0.875-1.581,1.906-2.08,3.039    c-3.497,7.938-3.384,16.992,0.311,24.839c3.695,7.848,10.601,13.704,18.946,16.067l11.236,3.182    c12.395,3.51,21.435,13.119,24.18,25.706c2.745,12.586-1.472,25.086-11.279,33.439c-3.166,2.698-7.728,3.137-11.353,1.094    l-15.049-8.483c-10.11-5.699-22.738-5.013-32.173,1.752l-28.499,20.437c-7.163,5.136-11.685,13.12-12.403,21.905    c-0.72,8.785,2.443,17.398,8.676,23.63l6.305,6.306c0.91,0.91,1.627,1.972,2.129,3.157l15.51,36.593    c1.614,3.81,0.681,8.28-2.324,11.125l-58.702,55.575C238.491,414.937,234.023,422.406,231.652,430.437z M467.118,467.074    c-21.439,21.438-55.226,29.253-97.709,22.597c-20.582-3.225-42.327-9.674-64.669-19.09c40.156-9.033,77.023-29.233,106.837-59.047    c29.956-29.956,50.009-67.053,59.034-106.724c12.744,30.271,20.014,59.242,21.215,84.973    C493.362,422.648,484.817,449.374,467.118,467.074z" fill="#FFFFFF"/>
	</g>
</g>
<g>
</g>
<g>
</g>
<g>
</g>
<g>
</g>
<g>
</g>
<g>
</g>
<g>
</g>
<g>
</g>
<g>
</g>
<g>
</g>
<g>
</g>
<g>
</g>
<g>
</g>
<g>
</g>
<g>
</g>
</svg>
